# xmcd CD database file
#
# Track frame offsets:
#	150
#	10359
#	28520
#	44166
#	62660
#	78347
#	92815
#	108963
#	126288
#	144649
#	154562
#	169605
#	185964
#
# Disc length: 2685 seconds
#
# Revision: 1
# Processed by: cddbd v1.5.2PL0 Copyright (c) Steve Scherf et al.
# Submitted via: CDValet v3.40 - Copyright (c) 1996 - 1998 Greg Leichner
#
DISCID=af0a7b0d
DTITLE=The Coal Porters - Durango
DYEAR=1900
DGENRE=
TTITLE0=Let's Say Goodbye (Like We Said Hello)
TTITLE1=No More Chains
TTITLE2=Moonlight Midnight
TTITLE3=I'm Not Going Away
TTITLE4=One Is Way Too Many
TTITLE5=The Squaky Wheel Gets The Oil
TTITLE6=Pretty Polly
TTITLE7=Like A Hurricane
TTITLE8=Permanent Twilight
TTITLE9=Roadkill Breakdown
TTITLE10=Lookin' For A Soft Place To Fall
TTITLE11=Closing Time Genius
TTITLE12=Sail Away, Ladies!
EXTD=
EXTT0=
EXTT1=
EXTT2=
EXTT3=
EXTT4=
EXTT5=
EXTT6=
EXTT7=
EXTT8=
EXTT9=
EXTT10=
EXTT11=
EXTT12=
PLAYORDER=
